<mxfile host="65bd71144e">
    <diagram id="XxgdOTPeY6Dt8EJ3RZ16" name="Page-1">
        <mxGraphModel dx="2070" dy="723" grid="1" gridSize="10" guides="1" tooltips="1" connect="1" arrows="1" fold="1" page="1" pageScale="1" pageWidth="850" pageHeight="1100" math="0" shadow="0">
            <root>
                <mxCell id="0"/>
                <mxCell id="1" parent="0"/>
                <mxCell id="24" value="" style="shape=table;html=1;whiteSpace=wrap;startSize=0;container=1;collapsible=0;childLayout=tableLayout;strokeWidth=1;fontStyle=1;fillColor=#E6E6E6;" vertex="1" parent="1">
                    <mxGeometry x="213" y="345" width="440" height="228" as="geometry"/>
                </mxCell>
                <mxCell id="25" style="shape=partialRectangle;html=1;whiteSpace=wrap;collapsible=0;dropTarget=0;pointerEvents=0;fillColor=#E6E6E6;top=0;left=0;bottom=0;right=0;points=[[0,0.5],[1,0.5]];portConstraint=eastwest;strokeWidth=1;fontStyle=1" vertex="1" parent="24">
                    <mxGeometry width="440" height="29" as="geometry"/>
                </mxCell>
                <mxCell id="26" value="0" style="shape=partialRectangle;html=1;whiteSpace=wrap;connectable=0;fillColor=#E6E6E6;top=0;left=0;bottom=0;right=0;overflow=hidden;pointerEvents=1;strokeWidth=1;strokeColor=#CCFF99;fontStyle=1" vertex="1" parent="25">
                    <mxGeometry width="29" height="29" as="geometry">
                        <mxRectangle width="29" height="29" as="alternateBounds"/>
                    </mxGeometry>
                </mxCell>
                <mxCell id="27" value="1" style="shape=partialRectangle;html=1;whiteSpace=wrap;connectable=0;fillColor=#E6E6E6;top=0;left=0;bottom=0;right=0;overflow=hidden;pointerEvents=1;strokeWidth=1;fontStyle=1" vertex="1" parent="25">
                    <mxGeometry x="29" width="26" height="29" as="geometry">
                        <mxRectangle width="26" height="29" as="alternateBounds"/>
                    </mxGeometry>
                </mxCell>
                <mxCell id="28" value="2" style="shape=partialRectangle;html=1;whiteSpace=wrap;connectable=0;fillColor=#E6E6E6;top=0;left=0;bottom=0;right=0;overflow=hidden;pointerEvents=1;strokeWidth=1;fontStyle=1" vertex="1" parent="25">
                    <mxGeometry x="55" width="27" height="29" as="geometry">
                        <mxRectangle width="27" height="29" as="alternateBounds"/>
                    </mxGeometry>
                </mxCell>
                <mxCell id="29" value="3" style="shape=partialRectangle;html=1;whiteSpace=wrap;connectable=0;fillColor=#E6E6E6;top=0;left=0;bottom=0;right=0;overflow=hidden;pointerEvents=1;strokeWidth=1;fontStyle=1" vertex="1" parent="25">
                    <mxGeometry x="82" width="29" height="29" as="geometry">
                        <mxRectangle width="29" height="29" as="alternateBounds"/>
                    </mxGeometry>
                </mxCell>
                <mxCell id="30" value="4" style="shape=partialRectangle;html=1;whiteSpace=wrap;connectable=0;fillColor=#E6E6E6;top=0;left=0;bottom=0;right=0;overflow=hidden;pointerEvents=1;strokeWidth=1;fontStyle=1" vertex="1" parent="25">
                    <mxGeometry x="111" width="27" height="29" as="geometry">
                        <mxRectangle width="27" height="29" as="alternateBounds"/>
                    </mxGeometry>
                </mxCell>
                <mxCell id="31" value="5" style="shape=partialRectangle;html=1;whiteSpace=wrap;connectable=0;fillColor=#E6E6E6;top=0;left=0;bottom=0;right=0;overflow=hidden;pointerEvents=1;strokeWidth=1;fontStyle=1" vertex="1" parent="25">
                    <mxGeometry x="138" width="27" height="29" as="geometry">
                        <mxRectangle width="27" height="29" as="alternateBounds"/>
                    </mxGeometry>
                </mxCell>
                <mxCell id="32" value="6" style="shape=partialRectangle;html=1;whiteSpace=wrap;connectable=0;fillColor=#E6E6E6;top=0;left=0;bottom=0;right=0;overflow=hidden;pointerEvents=1;strokeWidth=1;fontStyle=1" vertex="1" parent="25">
                    <mxGeometry x="165" width="26" height="29" as="geometry">
                        <mxRectangle width="26" height="29" as="alternateBounds"/>
                    </mxGeometry>
                </mxCell>
                <mxCell id="33" value="7" style="shape=partialRectangle;html=1;whiteSpace=wrap;connectable=0;fillColor=#E6E6E6;top=0;left=0;bottom=0;right=0;overflow=hidden;pointerEvents=1;strokeWidth=1;fontStyle=1" vertex="1" parent="25">
                    <mxGeometry x="191" width="29" height="29" as="geometry">
                        <mxRectangle width="29" height="29" as="alternateBounds"/>
                    </mxGeometry>
                </mxCell>
                <mxCell id="34" value="8" style="shape=partialRectangle;html=1;whiteSpace=wrap;connectable=0;fillColor=#E6E6E6;top=0;left=0;bottom=0;right=0;overflow=hidden;pointerEvents=1;strokeWidth=1;fontStyle=1" vertex="1" parent="25">
                    <mxGeometry x="220" width="29" height="29" as="geometry">
                        <mxRectangle width="29" height="29" as="alternateBounds"/>
                    </mxGeometry>
                </mxCell>
                <mxCell id="35" value="9" style="shape=partialRectangle;html=1;whiteSpace=wrap;connectable=0;fillColor=#E6E6E6;top=0;left=0;bottom=0;right=0;overflow=hidden;pointerEvents=1;strokeWidth=1;fontStyle=1" vertex="1" parent="25">
                    <mxGeometry x="249" width="26" height="29" as="geometry">
                        <mxRectangle width="26" height="29" as="alternateBounds"/>
                    </mxGeometry>
                </mxCell>
                <mxCell id="36" value="10" style="shape=partialRectangle;html=1;whiteSpace=wrap;connectable=0;fillColor=#E6E6E6;top=0;left=0;bottom=0;right=0;overflow=hidden;pointerEvents=1;strokeWidth=1;fontStyle=1" vertex="1" parent="25">
                    <mxGeometry x="275" width="27" height="29" as="geometry">
                        <mxRectangle width="27" height="29" as="alternateBounds"/>
                    </mxGeometry>
                </mxCell>
                <mxCell id="37" value="11" style="shape=partialRectangle;html=1;whiteSpace=wrap;connectable=0;fillColor=#E6E6E6;top=0;left=0;bottom=0;right=0;overflow=hidden;pointerEvents=1;strokeWidth=1;fontStyle=1" vertex="1" parent="25">
                    <mxGeometry x="302" width="29" height="29" as="geometry">
                        <mxRectangle width="29" height="29" as="alternateBounds"/>
                    </mxGeometry>
                </mxCell>
                <mxCell id="38" value="0" style="shape=partialRectangle;html=1;whiteSpace=wrap;connectable=0;fillColor=#E6E6E6;top=0;left=0;bottom=0;right=0;overflow=hidden;pointerEvents=1;strokeWidth=1;fontStyle=1" vertex="1" parent="25">
                    <mxGeometry x="331" width="27" height="29" as="geometry">
                        <mxRectangle width="27" height="29" as="alternateBounds"/>
                    </mxGeometry>
                </mxCell>
                <mxCell id="39" value="0" style="shape=partialRectangle;html=1;whiteSpace=wrap;connectable=0;fillColor=#E6E6E6;top=0;left=0;bottom=0;right=0;overflow=hidden;pointerEvents=1;strokeWidth=1;fontStyle=1" vertex="1" parent="25">
                    <mxGeometry x="358" width="27" height="29" as="geometry">
                        <mxRectangle width="27" height="29" as="alternateBounds"/>
                    </mxGeometry>
                </mxCell>
                <mxCell id="40" value="0" style="shape=partialRectangle;html=1;whiteSpace=wrap;connectable=0;fillColor=#E6E6E6;top=0;left=0;bottom=0;right=0;overflow=hidden;pointerEvents=1;strokeWidth=1;fontStyle=1" vertex="1" parent="25">
                    <mxGeometry x="385" width="26" height="29" as="geometry">
                        <mxRectangle width="26" height="29" as="alternateBounds"/>
                    </mxGeometry>
                </mxCell>
                <mxCell id="41" value="0" style="shape=partialRectangle;html=1;whiteSpace=wrap;connectable=0;fillColor=#E6E6E6;top=0;left=0;bottom=0;right=0;overflow=hidden;pointerEvents=1;strokeWidth=1;fontStyle=1" vertex="1" parent="25">
                    <mxGeometry x="411" width="29" height="29" as="geometry">
                        <mxRectangle width="29" height="29" as="alternateBounds"/>
                    </mxGeometry>
                </mxCell>
                <mxCell id="42" style="shape=partialRectangle;html=1;whiteSpace=wrap;collapsible=0;dropTarget=0;pointerEvents=0;fillColor=#E6E6E6;top=0;left=0;bottom=0;right=0;points=[[0,0.5],[1,0.5]];portConstraint=eastwest;strokeWidth=1;fontStyle=1" vertex="1" parent="24">
                    <mxGeometry y="29" width="440" height="28" as="geometry"/>
                </mxCell>
                <mxCell id="43" value="12" style="shape=partialRectangle;html=1;whiteSpace=wrap;connectable=0;fillColor=#E6E6E6;top=0;left=0;bottom=0;right=0;overflow=hidden;pointerEvents=1;strokeWidth=1;fontStyle=1" vertex="1" parent="42">
                    <mxGeometry width="29" height="28" as="geometry">
                        <mxRectangle width="29" height="28" as="alternateBounds"/>
                    </mxGeometry>
                </mxCell>
                <mxCell id="44" value="13" style="shape=partialRectangle;html=1;whiteSpace=wrap;connectable=0;fillColor=#E6E6E6;top=0;left=0;bottom=0;right=0;overflow=hidden;pointerEvents=1;strokeWidth=1;fontStyle=1" vertex="1" parent="42">
                    <mxGeometry x="29" width="26" height="28" as="geometry">
                        <mxRectangle width="26" height="28" as="alternateBounds"/>
                    </mxGeometry>
                </mxCell>
                <mxCell id="45" value="14" style="shape=partialRectangle;html=1;whiteSpace=wrap;connectable=0;fillColor=#E6E6E6;top=0;left=0;bottom=0;right=0;overflow=hidden;pointerEvents=1;strokeWidth=1;fontStyle=1" vertex="1" parent="42">
                    <mxGeometry x="55" width="27" height="28" as="geometry">
                        <mxRectangle width="27" height="28" as="alternateBounds"/>
                    </mxGeometry>
                </mxCell>
                <mxCell id="46" value="15" style="shape=partialRectangle;html=1;whiteSpace=wrap;connectable=0;fillColor=#E6E6E6;top=0;left=0;bottom=0;right=0;overflow=hidden;pointerEvents=1;strokeWidth=1;fontStyle=1" vertex="1" parent="42">
                    <mxGeometry x="82" width="29" height="28" as="geometry">
                        <mxRectangle width="29" height="28" as="alternateBounds"/>
                    </mxGeometry>
                </mxCell>
                <mxCell id="47" value="16" style="shape=partialRectangle;html=1;whiteSpace=wrap;connectable=0;fillColor=#E6E6E6;top=0;left=0;bottom=0;right=0;overflow=hidden;pointerEvents=1;strokeWidth=1;fontStyle=1" vertex="1" parent="42">
                    <mxGeometry x="111" width="27" height="28" as="geometry">
                        <mxRectangle width="27" height="28" as="alternateBounds"/>
                    </mxGeometry>
                </mxCell>
                <mxCell id="48" value="17" style="shape=partialRectangle;html=1;whiteSpace=wrap;connectable=0;fillColor=#E6E6E6;top=0;left=0;bottom=0;right=0;overflow=hidden;pointerEvents=1;strokeWidth=1;fontStyle=1" vertex="1" parent="42">
                    <mxGeometry x="138" width="27" height="28" as="geometry">
                        <mxRectangle width="27" height="28" as="alternateBounds"/>
                    </mxGeometry>
                </mxCell>
                <mxCell id="49" value="18" style="shape=partialRectangle;html=1;whiteSpace=wrap;connectable=0;fillColor=#E6E6E6;top=0;left=0;bottom=0;right=0;overflow=hidden;pointerEvents=1;strokeWidth=1;fontStyle=1" vertex="1" parent="42">
                    <mxGeometry x="165" width="26" height="28" as="geometry">
                        <mxRectangle width="26" height="28" as="alternateBounds"/>
                    </mxGeometry>
                </mxCell>
                <mxCell id="50" value="19" style="shape=partialRectangle;html=1;whiteSpace=wrap;connectable=0;fillColor=#E6E6E6;top=0;left=0;bottom=0;right=0;overflow=hidden;pointerEvents=1;strokeWidth=1;fontStyle=1" vertex="1" parent="42">
                    <mxGeometry x="191" width="29" height="28" as="geometry">
                        <mxRectangle width="29" height="28" as="alternateBounds"/>
                    </mxGeometry>
                </mxCell>
                <mxCell id="51" value="20" style="shape=partialRectangle;html=1;whiteSpace=wrap;connectable=0;fillColor=#E6E6E6;top=0;left=0;bottom=0;right=0;overflow=hidden;pointerEvents=1;strokeWidth=1;fontStyle=1" vertex="1" parent="42">
                    <mxGeometry x="220" width="29" height="28" as="geometry">
                        <mxRectangle width="29" height="28" as="alternateBounds"/>
                    </mxGeometry>
                </mxCell>
                <mxCell id="52" value="21" style="shape=partialRectangle;html=1;whiteSpace=wrap;connectable=0;fillColor=#E6E6E6;top=0;left=0;bottom=0;right=0;overflow=hidden;pointerEvents=1;strokeWidth=1;fontStyle=1" vertex="1" parent="42">
                    <mxGeometry x="249" width="26" height="28" as="geometry">
                        <mxRectangle width="26" height="28" as="alternateBounds"/>
                    </mxGeometry>
                </mxCell>
                <mxCell id="53" value="22" style="shape=partialRectangle;html=1;whiteSpace=wrap;connectable=0;fillColor=#E6E6E6;top=0;left=0;bottom=0;right=0;overflow=hidden;pointerEvents=1;strokeWidth=1;fontStyle=1" vertex="1" parent="42">
                    <mxGeometry x="275" width="27" height="28" as="geometry">
                        <mxRectangle width="27" height="28" as="alternateBounds"/>
                    </mxGeometry>
                </mxCell>
                <mxCell id="54" value="23" style="shape=partialRectangle;html=1;whiteSpace=wrap;connectable=0;fillColor=#E6E6E6;top=0;left=0;bottom=0;right=0;overflow=hidden;pointerEvents=1;strokeWidth=1;fontStyle=1" vertex="1" parent="42">
                    <mxGeometry x="302" width="29" height="28" as="geometry">
                        <mxRectangle width="29" height="28" as="alternateBounds"/>
                    </mxGeometry>
                </mxCell>
                <mxCell id="55" value="0" style="shape=partialRectangle;html=1;whiteSpace=wrap;connectable=0;fillColor=#E6E6E6;top=0;left=0;bottom=0;right=0;overflow=hidden;pointerEvents=1;strokeWidth=1;fontStyle=1" vertex="1" parent="42">
                    <mxGeometry x="331" width="27" height="28" as="geometry">
                        <mxRectangle width="27" height="28" as="alternateBounds"/>
                    </mxGeometry>
                </mxCell>
                <mxCell id="56" value="0" style="shape=partialRectangle;html=1;whiteSpace=wrap;connectable=0;fillColor=#E6E6E6;top=0;left=0;bottom=0;right=0;overflow=hidden;pointerEvents=1;strokeWidth=1;fontStyle=1" vertex="1" parent="42">
                    <mxGeometry x="358" width="27" height="28" as="geometry">
                        <mxRectangle width="27" height="28" as="alternateBounds"/>
                    </mxGeometry>
                </mxCell>
                <mxCell id="57" value="0" style="shape=partialRectangle;html=1;whiteSpace=wrap;connectable=0;fillColor=#E6E6E6;top=0;left=0;bottom=0;right=0;overflow=hidden;pointerEvents=1;strokeWidth=1;fontStyle=1" vertex="1" parent="42">
                    <mxGeometry x="385" width="26" height="28" as="geometry">
                        <mxRectangle width="26" height="28" as="alternateBounds"/>
                    </mxGeometry>
                </mxCell>
                <mxCell id="58" value="0" style="shape=partialRectangle;html=1;whiteSpace=wrap;connectable=0;fillColor=#E6E6E6;top=0;left=0;bottom=0;right=0;overflow=hidden;pointerEvents=1;strokeWidth=1;fontStyle=1" vertex="1" parent="42">
                    <mxGeometry x="411" width="29" height="28" as="geometry">
                        <mxRectangle width="29" height="28" as="alternateBounds"/>
                    </mxGeometry>
                </mxCell>
                <mxCell id="59" style="shape=partialRectangle;html=1;whiteSpace=wrap;collapsible=0;dropTarget=0;pointerEvents=0;fillColor=#E6E6E6;top=0;left=0;bottom=0;right=0;points=[[0,0.5],[1,0.5]];portConstraint=eastwest;strokeWidth=1;fontStyle=1" vertex="1" parent="24">
                    <mxGeometry y="57" width="440" height="29" as="geometry"/>
                </mxCell>
                <mxCell id="60" value="24" style="shape=partialRectangle;html=1;whiteSpace=wrap;connectable=0;fillColor=#E6E6E6;top=0;left=0;bottom=0;right=0;overflow=hidden;pointerEvents=1;strokeWidth=1;fontStyle=1" vertex="1" parent="59">
                    <mxGeometry width="29" height="29" as="geometry">
                        <mxRectangle width="29" height="29" as="alternateBounds"/>
                    </mxGeometry>
                </mxCell>
                <mxCell id="61" value="25" style="shape=partialRectangle;html=1;whiteSpace=wrap;connectable=0;fillColor=#E6E6E6;top=0;left=0;bottom=0;right=0;overflow=hidden;pointerEvents=1;strokeWidth=1;fontStyle=1" vertex="1" parent="59">
                    <mxGeometry x="29" width="26" height="29" as="geometry">
                        <mxRectangle width="26" height="29" as="alternateBounds"/>
                    </mxGeometry>
                </mxCell>
                <mxCell id="62" value="26" style="shape=partialRectangle;html=1;whiteSpace=wrap;connectable=0;fillColor=#E6E6E6;top=0;left=0;bottom=0;right=0;overflow=hidden;pointerEvents=1;strokeWidth=1;fontStyle=1" vertex="1" parent="59">
                    <mxGeometry x="55" width="27" height="29" as="geometry">
                        <mxRectangle width="27" height="29" as="alternateBounds"/>
                    </mxGeometry>
                </mxCell>
                <mxCell id="63" value="27" style="shape=partialRectangle;html=1;whiteSpace=wrap;connectable=0;fillColor=#E6E6E6;top=0;left=0;bottom=0;right=0;overflow=hidden;pointerEvents=1;strokeWidth=1;fontStyle=1" vertex="1" parent="59">
                    <mxGeometry x="82" width="29" height="29" as="geometry">
                        <mxRectangle width="29" height="29" as="alternateBounds"/>
                    </mxGeometry>
                </mxCell>
                <mxCell id="64" value="28" style="shape=partialRectangle;html=1;whiteSpace=wrap;connectable=0;fillColor=#E6E6E6;top=0;left=0;bottom=0;right=0;overflow=hidden;pointerEvents=1;strokeWidth=1;fontStyle=1" vertex="1" parent="59">
                    <mxGeometry x="111" width="27" height="29" as="geometry">
                        <mxRectangle width="27" height="29" as="alternateBounds"/>
                    </mxGeometry>
                </mxCell>
                <mxCell id="65" value="29" style="shape=partialRectangle;html=1;whiteSpace=wrap;connectable=0;fillColor=#E6E6E6;top=0;left=0;bottom=0;right=0;overflow=hidden;pointerEvents=1;strokeWidth=1;fontStyle=1" vertex="1" parent="59">
                    <mxGeometry x="138" width="27" height="29" as="geometry">
                        <mxRectangle width="27" height="29" as="alternateBounds"/>
                    </mxGeometry>
                </mxCell>
                <mxCell id="66" value="30" style="shape=partialRectangle;html=1;whiteSpace=wrap;connectable=0;fillColor=#E6E6E6;top=0;left=0;bottom=0;right=0;overflow=hidden;pointerEvents=1;strokeWidth=1;fontStyle=1" vertex="1" parent="59">
                    <mxGeometry x="165" width="26" height="29" as="geometry">
                        <mxRectangle width="26" height="29" as="alternateBounds"/>
                    </mxGeometry>
                </mxCell>
                <mxCell id="67" value="31" style="shape=partialRectangle;html=1;whiteSpace=wrap;connectable=0;fillColor=#E6E6E6;top=0;left=0;bottom=0;right=0;overflow=hidden;pointerEvents=1;strokeWidth=1;fontStyle=1" vertex="1" parent="59">
                    <mxGeometry x="191" width="29" height="29" as="geometry">
                        <mxRectangle width="29" height="29" as="alternateBounds"/>
                    </mxGeometry>
                </mxCell>
                <mxCell id="68" value="32" style="shape=partialRectangle;html=1;whiteSpace=wrap;connectable=0;fillColor=#E6E6E6;top=0;left=0;bottom=0;right=0;overflow=hidden;pointerEvents=1;strokeWidth=1;fontStyle=1" vertex="1" parent="59">
                    <mxGeometry x="220" width="29" height="29" as="geometry">
                        <mxRectangle width="29" height="29" as="alternateBounds"/>
                    </mxGeometry>
                </mxCell>
                <mxCell id="69" value="33" style="shape=partialRectangle;html=1;whiteSpace=wrap;connectable=0;fillColor=#E6E6E6;top=0;left=0;bottom=0;right=0;overflow=hidden;pointerEvents=1;strokeWidth=1;fontStyle=1" vertex="1" parent="59">
                    <mxGeometry x="249" width="26" height="29" as="geometry">
                        <mxRectangle width="26" height="29" as="alternateBounds"/>
                    </mxGeometry>
                </mxCell>
                <mxCell id="70" value="34" style="shape=partialRectangle;html=1;whiteSpace=wrap;connectable=0;fillColor=#E6E6E6;top=0;left=0;bottom=0;right=0;overflow=hidden;pointerEvents=1;strokeWidth=1;fontStyle=1" vertex="1" parent="59">
                    <mxGeometry x="275" width="27" height="29" as="geometry">
                        <mxRectangle width="27" height="29" as="alternateBounds"/>
                    </mxGeometry>
                </mxCell>
                <mxCell id="71" value="35" style="shape=partialRectangle;html=1;whiteSpace=wrap;connectable=0;fillColor=#E6E6E6;top=0;left=0;bottom=0;right=0;overflow=hidden;pointerEvents=1;strokeWidth=1;fontStyle=1" vertex="1" parent="59">
                    <mxGeometry x="302" width="29" height="29" as="geometry">
                        <mxRectangle width="29" height="29" as="alternateBounds"/>
                    </mxGeometry>
                </mxCell>
                <mxCell id="72" value="0" style="shape=partialRectangle;html=1;whiteSpace=wrap;connectable=0;fillColor=#E6E6E6;top=0;left=0;bottom=0;right=0;overflow=hidden;pointerEvents=1;strokeWidth=1;fontStyle=1" vertex="1" parent="59">
                    <mxGeometry x="331" width="27" height="29" as="geometry">
                        <mxRectangle width="27" height="29" as="alternateBounds"/>
                    </mxGeometry>
                </mxCell>
                <mxCell id="73" value="0" style="shape=partialRectangle;html=1;whiteSpace=wrap;connectable=0;fillColor=#E6E6E6;top=0;left=0;bottom=0;right=0;overflow=hidden;pointerEvents=1;strokeWidth=1;fontStyle=1" vertex="1" parent="59">
                    <mxGeometry x="358" width="27" height="29" as="geometry">
                        <mxRectangle width="27" height="29" as="alternateBounds"/>
                    </mxGeometry>
                </mxCell>
                <mxCell id="74" value="0" style="shape=partialRectangle;html=1;whiteSpace=wrap;connectable=0;fillColor=#E6E6E6;top=0;left=0;bottom=0;right=0;overflow=hidden;pointerEvents=1;strokeWidth=1;fontStyle=1" vertex="1" parent="59">
                    <mxGeometry x="385" width="26" height="29" as="geometry">
                        <mxRectangle width="26" height="29" as="alternateBounds"/>
                    </mxGeometry>
                </mxCell>
                <mxCell id="75" value="0" style="shape=partialRectangle;html=1;whiteSpace=wrap;connectable=0;fillColor=#E6E6E6;top=0;left=0;bottom=0;right=0;overflow=hidden;pointerEvents=1;strokeWidth=1;fontStyle=1" vertex="1" parent="59">
                    <mxGeometry x="411" width="29" height="29" as="geometry">
                        <mxRectangle width="29" height="29" as="alternateBounds"/>
                    </mxGeometry>
                </mxCell>
                <mxCell id="76" style="shape=partialRectangle;html=1;whiteSpace=wrap;collapsible=0;dropTarget=0;pointerEvents=0;fillColor=#E6E6E6;top=0;left=0;bottom=0;right=0;points=[[0,0.5],[1,0.5]];portConstraint=eastwest;strokeWidth=1;fontStyle=1" vertex="1" parent="24">
                    <mxGeometry y="86" width="440" height="28" as="geometry"/>
                </mxCell>
                <mxCell id="77" value="36" style="shape=partialRectangle;html=1;whiteSpace=wrap;connectable=0;fillColor=#E6E6E6;top=0;left=0;bottom=0;right=0;overflow=hidden;pointerEvents=1;strokeWidth=1;fontStyle=1" vertex="1" parent="76">
                    <mxGeometry width="29" height="28" as="geometry">
                        <mxRectangle width="29" height="28" as="alternateBounds"/>
                    </mxGeometry>
                </mxCell>
                <mxCell id="78" value="37" style="shape=partialRectangle;html=1;whiteSpace=wrap;connectable=0;fillColor=#E6E6E6;top=0;left=0;bottom=0;right=0;overflow=hidden;pointerEvents=1;strokeWidth=1;fontStyle=1" vertex="1" parent="76">
                    <mxGeometry x="29" width="26" height="28" as="geometry">
                        <mxRectangle width="26" height="28" as="alternateBounds"/>
                    </mxGeometry>
                </mxCell>
                <mxCell id="79" value="38" style="shape=partialRectangle;html=1;whiteSpace=wrap;connectable=0;fillColor=#E6E6E6;top=0;left=0;bottom=0;right=0;overflow=hidden;pointerEvents=1;strokeWidth=1;fontStyle=1" vertex="1" parent="76">
                    <mxGeometry x="55" width="27" height="28" as="geometry">
                        <mxRectangle width="27" height="28" as="alternateBounds"/>
                    </mxGeometry>
                </mxCell>
                <mxCell id="80" value="39" style="shape=partialRectangle;html=1;whiteSpace=wrap;connectable=0;fillColor=#E6E6E6;top=0;left=0;bottom=0;right=0;overflow=hidden;pointerEvents=1;strokeWidth=1;fontStyle=1" vertex="1" parent="76">
                    <mxGeometry x="82" width="29" height="28" as="geometry">
                        <mxRectangle width="29" height="28" as="alternateBounds"/>
                    </mxGeometry>
                </mxCell>
                <mxCell id="81" value="40" style="shape=partialRectangle;html=1;whiteSpace=wrap;connectable=0;fillColor=#E6E6E6;top=0;left=0;bottom=0;right=0;overflow=hidden;pointerEvents=1;strokeWidth=1;fontStyle=1" vertex="1" parent="76">
                    <mxGeometry x="111" width="27" height="28" as="geometry">
                        <mxRectangle width="27" height="28" as="alternateBounds"/>
                    </mxGeometry>
                </mxCell>
                <mxCell id="82" value="41" style="shape=partialRectangle;html=1;whiteSpace=wrap;connectable=0;fillColor=#E6E6E6;top=0;left=0;bottom=0;right=0;overflow=hidden;pointerEvents=1;strokeWidth=1;fontStyle=1" vertex="1" parent="76">
                    <mxGeometry x="138" width="27" height="28" as="geometry">
                        <mxRectangle width="27" height="28" as="alternateBounds"/>
                    </mxGeometry>
                </mxCell>
                <mxCell id="83" value="42" style="shape=partialRectangle;html=1;whiteSpace=wrap;connectable=0;fillColor=#E6E6E6;top=0;left=0;bottom=0;right=0;overflow=hidden;pointerEvents=1;strokeWidth=1;fontStyle=1" vertex="1" parent="76">
                    <mxGeometry x="165" width="26" height="28" as="geometry">
                        <mxRectangle width="26" height="28" as="alternateBounds"/>
                    </mxGeometry>
                </mxCell>
                <mxCell id="84" value="43" style="shape=partialRectangle;html=1;whiteSpace=wrap;connectable=0;fillColor=#E6E6E6;top=0;left=0;bottom=0;right=0;overflow=hidden;pointerEvents=1;strokeWidth=1;fontStyle=1" vertex="1" parent="76">
                    <mxGeometry x="191" width="29" height="28" as="geometry">
                        <mxRectangle width="29" height="28" as="alternateBounds"/>
                    </mxGeometry>
                </mxCell>
                <mxCell id="85" value="44" style="shape=partialRectangle;html=1;whiteSpace=wrap;connectable=0;fillColor=#E6E6E6;top=0;left=0;bottom=0;right=0;overflow=hidden;pointerEvents=1;strokeWidth=1;fontStyle=1" vertex="1" parent="76">
                    <mxGeometry x="220" width="29" height="28" as="geometry">
                        <mxRectangle width="29" height="28" as="alternateBounds"/>
                    </mxGeometry>
                </mxCell>
                <mxCell id="86" value="45" style="shape=partialRectangle;html=1;whiteSpace=wrap;connectable=0;fillColor=#E6E6E6;top=0;left=0;bottom=0;right=0;overflow=hidden;pointerEvents=1;strokeWidth=1;fontStyle=1" vertex="1" parent="76">
                    <mxGeometry x="249" width="26" height="28" as="geometry">
                        <mxRectangle width="26" height="28" as="alternateBounds"/>
                    </mxGeometry>
                </mxCell>
                <mxCell id="87" value="46" style="shape=partialRectangle;html=1;whiteSpace=wrap;connectable=0;fillColor=#E6E6E6;top=0;left=0;bottom=0;right=0;overflow=hidden;pointerEvents=1;strokeWidth=1;fontStyle=1" vertex="1" parent="76">
                    <mxGeometry x="275" width="27" height="28" as="geometry">
                        <mxRectangle width="27" height="28" as="alternateBounds"/>
                    </mxGeometry>
                </mxCell>
                <mxCell id="88" value="47" style="shape=partialRectangle;html=1;whiteSpace=wrap;connectable=0;fillColor=#E6E6E6;top=0;left=0;bottom=0;right=0;overflow=hidden;pointerEvents=1;strokeWidth=1;fontStyle=1" vertex="1" parent="76">
                    <mxGeometry x="302" width="29" height="28" as="geometry">
                        <mxRectangle width="29" height="28" as="alternateBounds"/>
                    </mxGeometry>
                </mxCell>
                <mxCell id="89" value="0" style="shape=partialRectangle;html=1;whiteSpace=wrap;connectable=0;fillColor=#E6E6E6;top=0;left=0;bottom=0;right=0;overflow=hidden;pointerEvents=1;strokeWidth=1;fontStyle=1" vertex="1" parent="76">
                    <mxGeometry x="331" width="27" height="28" as="geometry">
                        <mxRectangle width="27" height="28" as="alternateBounds"/>
                    </mxGeometry>
                </mxCell>
                <mxCell id="90" value="0" style="shape=partialRectangle;html=1;whiteSpace=wrap;connectable=0;fillColor=#E6E6E6;top=0;left=0;bottom=0;right=0;overflow=hidden;pointerEvents=1;strokeWidth=1;fontStyle=1" vertex="1" parent="76">
                    <mxGeometry x="358" width="27" height="28" as="geometry">
                        <mxRectangle width="27" height="28" as="alternateBounds"/>
                    </mxGeometry>
                </mxCell>
                <mxCell id="91" value="0" style="shape=partialRectangle;html=1;whiteSpace=wrap;connectable=0;fillColor=#E6E6E6;top=0;left=0;bottom=0;right=0;overflow=hidden;pointerEvents=1;strokeWidth=1;fontStyle=1" vertex="1" parent="76">
                    <mxGeometry x="385" width="26" height="28" as="geometry">
                        <mxRectangle width="26" height="28" as="alternateBounds"/>
                    </mxGeometry>
                </mxCell>
                <mxCell id="92" value="0" style="shape=partialRectangle;html=1;whiteSpace=wrap;connectable=0;fillColor=#E6E6E6;top=0;left=0;bottom=0;right=0;overflow=hidden;pointerEvents=1;strokeWidth=1;fontStyle=1" vertex="1" parent="76">
                    <mxGeometry x="411" width="29" height="28" as="geometry">
                        <mxRectangle width="29" height="28" as="alternateBounds"/>
                    </mxGeometry>
                </mxCell>
                <mxCell id="93" value="" style="shape=partialRectangle;html=1;whiteSpace=wrap;collapsible=0;dropTarget=0;pointerEvents=0;fillColor=#E6E6E6;top=0;left=0;bottom=0;right=0;points=[[0,0.5],[1,0.5]];portConstraint=eastwest;strokeWidth=1;fontStyle=1" vertex="1" parent="24">
                    <mxGeometry y="114" width="440" height="29" as="geometry"/>
                </mxCell>
                <mxCell id="94" value="48" style="shape=partialRectangle;html=1;whiteSpace=wrap;connectable=0;fillColor=#E6E6E6;top=0;left=0;bottom=0;right=0;overflow=hidden;pointerEvents=1;strokeWidth=1;fontStyle=1" vertex="1" parent="93">
                    <mxGeometry width="29" height="29" as="geometry">
                        <mxRectangle width="29" height="29" as="alternateBounds"/>
                    </mxGeometry>
                </mxCell>
                <mxCell id="95" value="49" style="shape=partialRectangle;html=1;whiteSpace=wrap;connectable=0;fillColor=#E6E6E6;top=0;left=0;bottom=0;right=0;overflow=hidden;pointerEvents=1;strokeWidth=1;fontStyle=1" vertex="1" parent="93">
                    <mxGeometry x="29" width="26" height="29" as="geometry">
                        <mxRectangle width="26" height="29" as="alternateBounds"/>
                    </mxGeometry>
                </mxCell>
                <mxCell id="96" value="50" style="shape=partialRectangle;html=1;whiteSpace=wrap;connectable=0;fillColor=#E6E6E6;top=0;left=0;bottom=0;right=0;overflow=hidden;pointerEvents=1;strokeWidth=1;fontStyle=1" vertex="1" parent="93">
                    <mxGeometry x="55" width="27" height="29" as="geometry">
                        <mxRectangle width="27" height="29" as="alternateBounds"/>
                    </mxGeometry>
                </mxCell>
                <mxCell id="97" value="51" style="shape=partialRectangle;html=1;whiteSpace=wrap;connectable=0;fillColor=#E6E6E6;top=0;left=0;bottom=0;right=0;overflow=hidden;pointerEvents=1;strokeWidth=1;fontStyle=1" vertex="1" parent="93">
                    <mxGeometry x="82" width="29" height="29" as="geometry">
                        <mxRectangle width="29" height="29" as="alternateBounds"/>
                    </mxGeometry>
                </mxCell>
                <mxCell id="98" value="52" style="shape=partialRectangle;html=1;whiteSpace=wrap;connectable=0;fillColor=#E6E6E6;top=0;left=0;bottom=0;right=0;overflow=hidden;pointerEvents=1;strokeWidth=1;fontStyle=1" vertex="1" parent="93">
                    <mxGeometry x="111" width="27" height="29" as="geometry">
                        <mxRectangle width="27" height="29" as="alternateBounds"/>
                    </mxGeometry>
                </mxCell>
                <mxCell id="99" value="53" style="shape=partialRectangle;html=1;whiteSpace=wrap;connectable=0;fillColor=#E6E6E6;top=0;left=0;bottom=0;right=0;overflow=hidden;pointerEvents=1;strokeWidth=1;fontStyle=1" vertex="1" parent="93">
                    <mxGeometry x="138" width="27" height="29" as="geometry">
                        <mxRectangle width="27" height="29" as="alternateBounds"/>
                    </mxGeometry>
                </mxCell>
                <mxCell id="100" value="54" style="shape=partialRectangle;html=1;whiteSpace=wrap;connectable=0;fillColor=#E6E6E6;top=0;left=0;bottom=0;right=0;overflow=hidden;pointerEvents=1;strokeWidth=1;fontStyle=1" vertex="1" parent="93">
                    <mxGeometry x="165" width="26" height="29" as="geometry">
                        <mxRectangle width="26" height="29" as="alternateBounds"/>
                    </mxGeometry>
                </mxCell>
                <mxCell id="101" value="55" style="shape=partialRectangle;html=1;whiteSpace=wrap;connectable=0;fillColor=#E6E6E6;top=0;left=0;bottom=0;right=0;overflow=hidden;pointerEvents=1;strokeWidth=1;fontStyle=1" vertex="1" parent="93">
                    <mxGeometry x="191" width="29" height="29" as="geometry">
                        <mxRectangle width="29" height="29" as="alternateBounds"/>
                    </mxGeometry>
                </mxCell>
                <mxCell id="102" value="56" style="shape=partialRectangle;html=1;whiteSpace=wrap;connectable=0;fillColor=#E6E6E6;top=0;left=0;bottom=0;right=0;overflow=hidden;pointerEvents=1;strokeWidth=1;fontStyle=1" vertex="1" parent="93">
                    <mxGeometry x="220" width="29" height="29" as="geometry">
                        <mxRectangle width="29" height="29" as="alternateBounds"/>
                    </mxGeometry>
                </mxCell>
                <mxCell id="103" value="57" style="shape=partialRectangle;html=1;whiteSpace=wrap;connectable=0;fillColor=#E6E6E6;top=0;left=0;bottom=0;right=0;overflow=hidden;pointerEvents=1;strokeWidth=1;fontStyle=1" vertex="1" parent="93">
                    <mxGeometry x="249" width="26" height="29" as="geometry">
                        <mxRectangle width="26" height="29" as="alternateBounds"/>
                    </mxGeometry>
                </mxCell>
                <mxCell id="104" value="58" style="shape=partialRectangle;html=1;whiteSpace=wrap;connectable=0;fillColor=#E6E6E6;top=0;left=0;bottom=0;right=0;overflow=hidden;pointerEvents=1;strokeWidth=1;fontStyle=1" vertex="1" parent="93">
                    <mxGeometry x="275" width="27" height="29" as="geometry">
                        <mxRectangle width="27" height="29" as="alternateBounds"/>
                    </mxGeometry>
                </mxCell>
                <mxCell id="105" value="59" style="shape=partialRectangle;html=1;whiteSpace=wrap;connectable=0;fillColor=#E6E6E6;top=0;left=0;bottom=0;right=0;overflow=hidden;pointerEvents=1;strokeWidth=1;fontStyle=1" vertex="1" parent="93">
                    <mxGeometry x="302" width="29" height="29" as="geometry">
                        <mxRectangle width="29" height="29" as="alternateBounds"/>
                    </mxGeometry>
                </mxCell>
                <mxCell id="106" value="0" style="shape=partialRectangle;html=1;whiteSpace=wrap;connectable=0;fillColor=#E6E6E6;top=0;left=0;bottom=0;right=0;overflow=hidden;pointerEvents=1;strokeWidth=1;fontStyle=1" vertex="1" parent="93">
                    <mxGeometry x="331" width="27" height="29" as="geometry">
                        <mxRectangle width="27" height="29" as="alternateBounds"/>
                    </mxGeometry>
                </mxCell>
                <mxCell id="107" value="0" style="shape=partialRectangle;html=1;whiteSpace=wrap;connectable=0;fillColor=#E6E6E6;top=0;left=0;bottom=0;right=0;overflow=hidden;pointerEvents=1;strokeWidth=1;fontStyle=1" vertex="1" parent="93">
                    <mxGeometry x="358" width="27" height="29" as="geometry">
                        <mxRectangle width="27" height="29" as="alternateBounds"/>
                    </mxGeometry>
                </mxCell>
                <mxCell id="108" value="0" style="shape=partialRectangle;html=1;whiteSpace=wrap;connectable=0;fillColor=#E6E6E6;top=0;left=0;bottom=0;right=0;overflow=hidden;pointerEvents=1;strokeWidth=1;fontStyle=1" vertex="1" parent="93">
                    <mxGeometry x="385" width="26" height="29" as="geometry">
                        <mxRectangle width="26" height="29" as="alternateBounds"/>
                    </mxGeometry>
                </mxCell>
                <mxCell id="109" value="0" style="shape=partialRectangle;html=1;whiteSpace=wrap;connectable=0;fillColor=#E6E6E6;top=0;left=0;bottom=0;right=0;overflow=hidden;pointerEvents=1;strokeWidth=1;fontStyle=1" vertex="1" parent="93">
                    <mxGeometry x="411" width="29" height="29" as="geometry">
                        <mxRectangle width="29" height="29" as="alternateBounds"/>
                    </mxGeometry>
                </mxCell>
                <mxCell id="110" style="shape=partialRectangle;html=1;whiteSpace=wrap;collapsible=0;dropTarget=0;pointerEvents=0;fillColor=#E6E6E6;top=0;left=0;bottom=0;right=0;points=[[0,0.5],[1,0.5]];portConstraint=eastwest;strokeWidth=1;fontStyle=1" vertex="1" parent="24">
                    <mxGeometry y="143" width="440" height="28" as="geometry"/>
                </mxCell>
                <mxCell id="111" value="60" style="shape=partialRectangle;html=1;whiteSpace=wrap;connectable=0;fillColor=#E6E6E6;top=0;left=0;bottom=0;right=0;overflow=hidden;pointerEvents=1;strokeWidth=1;fontStyle=1" vertex="1" parent="110">
                    <mxGeometry width="29" height="28" as="geometry">
                        <mxRectangle width="29" height="28" as="alternateBounds"/>
                    </mxGeometry>
                </mxCell>
                <mxCell id="112" value="61" style="shape=partialRectangle;html=1;whiteSpace=wrap;connectable=0;fillColor=#E6E6E6;top=0;left=0;bottom=0;right=0;overflow=hidden;pointerEvents=1;strokeWidth=1;fontStyle=1" vertex="1" parent="110">
                    <mxGeometry x="29" width="26" height="28" as="geometry">
                        <mxRectangle width="26" height="28" as="alternateBounds"/>
                    </mxGeometry>
                </mxCell>
                <mxCell id="113" value="62" style="shape=partialRectangle;html=1;whiteSpace=wrap;connectable=0;fillColor=#E6E6E6;top=0;left=0;bottom=0;right=0;overflow=hidden;pointerEvents=1;strokeWidth=1;fontStyle=1" vertex="1" parent="110">
                    <mxGeometry x="55" width="27" height="28" as="geometry">
                        <mxRectangle width="27" height="28" as="alternateBounds"/>
                    </mxGeometry>
                </mxCell>
                <mxCell id="114" value="63" style="shape=partialRectangle;html=1;whiteSpace=wrap;connectable=0;fillColor=#E6E6E6;top=0;left=0;bottom=0;right=0;overflow=hidden;pointerEvents=1;strokeWidth=1;fontStyle=1" vertex="1" parent="110">
                    <mxGeometry x="82" width="29" height="28" as="geometry">
                        <mxRectangle width="29" height="28" as="alternateBounds"/>
                    </mxGeometry>
                </mxCell>
                <mxCell id="115" value="64" style="shape=partialRectangle;html=1;whiteSpace=wrap;connectable=0;fillColor=#E6E6E6;top=0;left=0;bottom=0;right=0;overflow=hidden;pointerEvents=1;strokeWidth=1;fontStyle=1" vertex="1" parent="110">
                    <mxGeometry x="111" width="27" height="28" as="geometry">
                        <mxRectangle width="27" height="28" as="alternateBounds"/>
                    </mxGeometry>
                </mxCell>
                <mxCell id="116" value="65" style="shape=partialRectangle;html=1;whiteSpace=wrap;connectable=0;fillColor=#E6E6E6;top=0;left=0;bottom=0;right=0;overflow=hidden;pointerEvents=1;strokeWidth=1;fontStyle=1" vertex="1" parent="110">
                    <mxGeometry x="138" width="27" height="28" as="geometry">
                        <mxRectangle width="27" height="28" as="alternateBounds"/>
                    </mxGeometry>
                </mxCell>
                <mxCell id="117" value="66" style="shape=partialRectangle;html=1;whiteSpace=wrap;connectable=0;fillColor=#E6E6E6;top=0;left=0;bottom=0;right=0;overflow=hidden;pointerEvents=1;strokeWidth=1;fontStyle=1" vertex="1" parent="110">
                    <mxGeometry x="165" width="26" height="28" as="geometry">
                        <mxRectangle width="26" height="28" as="alternateBounds"/>
                    </mxGeometry>
                </mxCell>
                <mxCell id="118" value="67" style="shape=partialRectangle;html=1;whiteSpace=wrap;connectable=0;fillColor=#E6E6E6;top=0;left=0;bottom=0;right=0;overflow=hidden;pointerEvents=1;strokeWidth=1;fontStyle=1" vertex="1" parent="110">
                    <mxGeometry x="191" width="29" height="28" as="geometry">
                        <mxRectangle width="29" height="28" as="alternateBounds"/>
                    </mxGeometry>
                </mxCell>
                <mxCell id="119" value="68" style="shape=partialRectangle;html=1;whiteSpace=wrap;connectable=0;fillColor=#E6E6E6;top=0;left=0;bottom=0;right=0;overflow=hidden;pointerEvents=1;strokeWidth=1;fontStyle=1" vertex="1" parent="110">
                    <mxGeometry x="220" width="29" height="28" as="geometry">
                        <mxRectangle width="29" height="28" as="alternateBounds"/>
                    </mxGeometry>
                </mxCell>
                <mxCell id="120" value="69" style="shape=partialRectangle;html=1;whiteSpace=wrap;connectable=0;fillColor=#E6E6E6;top=0;left=0;bottom=0;right=0;overflow=hidden;pointerEvents=1;strokeWidth=1;fontStyle=1" vertex="1" parent="110">
                    <mxGeometry x="249" width="26" height="28" as="geometry">
                        <mxRectangle width="26" height="28" as="alternateBounds"/>
                    </mxGeometry>
                </mxCell>
                <mxCell id="121" value="70" style="shape=partialRectangle;html=1;whiteSpace=wrap;connectable=0;fillColor=#E6E6E6;top=0;left=0;bottom=0;right=0;overflow=hidden;pointerEvents=1;strokeWidth=1;fontStyle=1" vertex="1" parent="110">
                    <mxGeometry x="275" width="27" height="28" as="geometry">
                        <mxRectangle width="27" height="28" as="alternateBounds"/>
                    </mxGeometry>
                </mxCell>
                <mxCell id="122" value="71" style="shape=partialRectangle;html=1;whiteSpace=wrap;connectable=0;fillColor=#E6E6E6;top=0;left=0;bottom=0;right=0;overflow=hidden;pointerEvents=1;strokeWidth=1;fontStyle=1" vertex="1" parent="110">
                    <mxGeometry x="302" width="29" height="28" as="geometry">
                        <mxRectangle width="29" height="28" as="alternateBounds"/>
                    </mxGeometry>
                </mxCell>
                <mxCell id="123" value="0" style="shape=partialRectangle;html=1;whiteSpace=wrap;connectable=0;fillColor=#E6E6E6;top=0;left=0;bottom=0;right=0;overflow=hidden;pointerEvents=1;strokeWidth=1;fontStyle=1" vertex="1" parent="110">
                    <mxGeometry x="331" width="27" height="28" as="geometry">
                        <mxRectangle width="27" height="28" as="alternateBounds"/>
                    </mxGeometry>
                </mxCell>
                <mxCell id="124" value="0" style="shape=partialRectangle;html=1;whiteSpace=wrap;connectable=0;fillColor=#E6E6E6;top=0;left=0;bottom=0;right=0;overflow=hidden;pointerEvents=1;strokeWidth=1;fontStyle=1" vertex="1" parent="110">
                    <mxGeometry x="358" width="27" height="28" as="geometry">
                        <mxRectangle width="27" height="28" as="alternateBounds"/>
                    </mxGeometry>
                </mxCell>
                <mxCell id="125" value="0" style="shape=partialRectangle;html=1;whiteSpace=wrap;connectable=0;fillColor=#E6E6E6;top=0;left=0;bottom=0;right=0;overflow=hidden;pointerEvents=1;strokeWidth=1;fontStyle=1" vertex="1" parent="110">
                    <mxGeometry x="385" width="26" height="28" as="geometry">
                        <mxRectangle width="26" height="28" as="alternateBounds"/>
                    </mxGeometry>
                </mxCell>
                <mxCell id="126" value="0" style="shape=partialRectangle;html=1;whiteSpace=wrap;connectable=0;fillColor=#E6E6E6;top=0;left=0;bottom=0;right=0;overflow=hidden;pointerEvents=1;strokeWidth=1;fontStyle=1" vertex="1" parent="110">
                    <mxGeometry x="411" width="29" height="28" as="geometry">
                        <mxRectangle width="29" height="28" as="alternateBounds"/>
                    </mxGeometry>
                </mxCell>
                <mxCell id="127" value="" style="shape=partialRectangle;html=1;whiteSpace=wrap;collapsible=0;dropTarget=0;pointerEvents=0;fillColor=#E6E6E6;top=0;left=0;bottom=0;right=0;points=[[0,0.5],[1,0.5]];portConstraint=eastwest;strokeWidth=1;fontStyle=1" vertex="1" parent="24">
                    <mxGeometry y="171" width="440" height="28" as="geometry"/>
                </mxCell>
                <mxCell id="128" value="0" style="shape=partialRectangle;html=1;whiteSpace=wrap;connectable=0;fillColor=#E6E6E6;top=0;left=0;bottom=0;right=0;overflow=hidden;pointerEvents=1;strokeWidth=1;fontStyle=1" vertex="1" parent="127">
                    <mxGeometry width="29" height="28" as="geometry">
                        <mxRectangle width="29" height="28" as="alternateBounds"/>
                    </mxGeometry>
                </mxCell>
                <mxCell id="129" value="0" style="shape=partialRectangle;html=1;whiteSpace=wrap;connectable=0;fillColor=#E6E6E6;top=0;left=0;bottom=0;right=0;overflow=hidden;pointerEvents=1;strokeWidth=1;fontStyle=1" vertex="1" parent="127">
                    <mxGeometry x="29" width="26" height="28" as="geometry">
                        <mxRectangle width="26" height="28" as="alternateBounds"/>
                    </mxGeometry>
                </mxCell>
                <mxCell id="130" value="0" style="shape=partialRectangle;html=1;whiteSpace=wrap;connectable=0;fillColor=#E6E6E6;top=0;left=0;bottom=0;right=0;overflow=hidden;pointerEvents=1;strokeWidth=1;fontStyle=1" vertex="1" parent="127">
                    <mxGeometry x="55" width="27" height="28" as="geometry">
                        <mxRectangle width="27" height="28" as="alternateBounds"/>
                    </mxGeometry>
                </mxCell>
                <mxCell id="131" value="0" style="shape=partialRectangle;html=1;whiteSpace=wrap;connectable=0;fillColor=#E6E6E6;top=0;left=0;bottom=0;right=0;overflow=hidden;pointerEvents=1;strokeWidth=1;fontStyle=1" vertex="1" parent="127">
                    <mxGeometry x="82" width="29" height="28" as="geometry">
                        <mxRectangle width="29" height="28" as="alternateBounds"/>
                    </mxGeometry>
                </mxCell>
                <mxCell id="132" value="0" style="shape=partialRectangle;html=1;whiteSpace=wrap;connectable=0;fillColor=#E6E6E6;top=0;left=0;bottom=0;right=0;overflow=hidden;pointerEvents=1;strokeWidth=1;fontStyle=1" vertex="1" parent="127">
                    <mxGeometry x="111" width="27" height="28" as="geometry">
                        <mxRectangle width="27" height="28" as="alternateBounds"/>
                    </mxGeometry>
                </mxCell>
                <mxCell id="133" value="0" style="shape=partialRectangle;html=1;whiteSpace=wrap;connectable=0;fillColor=#E6E6E6;top=0;left=0;bottom=0;right=0;overflow=hidden;pointerEvents=1;strokeWidth=1;fontStyle=1" vertex="1" parent="127">
                    <mxGeometry x="138" width="27" height="28" as="geometry">
                        <mxRectangle width="27" height="28" as="alternateBounds"/>
                    </mxGeometry>
                </mxCell>
                <mxCell id="134" value="0" style="shape=partialRectangle;html=1;whiteSpace=wrap;connectable=0;fillColor=#E6E6E6;top=0;left=0;bottom=0;right=0;overflow=hidden;pointerEvents=1;strokeWidth=1;fontStyle=1" vertex="1" parent="127">
                    <mxGeometry x="165" width="26" height="28" as="geometry">
                        <mxRectangle width="26" height="28" as="alternateBounds"/>
                    </mxGeometry>
                </mxCell>
                <mxCell id="135" value="0" style="shape=partialRectangle;html=1;whiteSpace=wrap;connectable=0;fillColor=#E6E6E6;top=0;left=0;bottom=0;right=0;overflow=hidden;pointerEvents=1;strokeWidth=1;fontStyle=1" vertex="1" parent="127">
                    <mxGeometry x="191" width="29" height="28" as="geometry">
                        <mxRectangle width="29" height="28" as="alternateBounds"/>
                    </mxGeometry>
                </mxCell>
                <mxCell id="136" value="0" style="shape=partialRectangle;html=1;whiteSpace=wrap;connectable=0;fillColor=#E6E6E6;top=0;left=0;bottom=0;right=0;overflow=hidden;pointerEvents=1;strokeWidth=1;fontStyle=1" vertex="1" parent="127">
                    <mxGeometry x="220" width="29" height="28" as="geometry">
                        <mxRectangle width="29" height="28" as="alternateBounds"/>
                    </mxGeometry>
                </mxCell>
                <mxCell id="137" value="0" style="shape=partialRectangle;html=1;whiteSpace=wrap;connectable=0;fillColor=#E6E6E6;top=0;left=0;bottom=0;right=0;overflow=hidden;pointerEvents=1;strokeWidth=1;fontStyle=1" vertex="1" parent="127">
                    <mxGeometry x="249" width="26" height="28" as="geometry">
                        <mxRectangle width="26" height="28" as="alternateBounds"/>
                    </mxGeometry>
                </mxCell>
                <mxCell id="138" value="0" style="shape=partialRectangle;html=1;whiteSpace=wrap;connectable=0;fillColor=#E6E6E6;top=0;left=0;bottom=0;right=0;overflow=hidden;pointerEvents=1;strokeWidth=1;fontStyle=1" vertex="1" parent="127">
                    <mxGeometry x="275" width="27" height="28" as="geometry">
                        <mxRectangle width="27" height="28" as="alternateBounds"/>
                    </mxGeometry>
                </mxCell>
                <mxCell id="139" value="0" style="shape=partialRectangle;html=1;whiteSpace=wrap;connectable=0;fillColor=#E6E6E6;top=0;left=0;bottom=0;right=0;overflow=hidden;pointerEvents=1;strokeWidth=1;fontStyle=1" vertex="1" parent="127">
                    <mxGeometry x="302" width="29" height="28" as="geometry">
                        <mxRectangle width="29" height="28" as="alternateBounds"/>
                    </mxGeometry>
                </mxCell>
                <mxCell id="140" value="0" style="shape=partialRectangle;html=1;whiteSpace=wrap;connectable=0;fillColor=#E6E6E6;top=0;left=0;bottom=0;right=0;overflow=hidden;pointerEvents=1;strokeWidth=1;fontStyle=1" vertex="1" parent="127">
                    <mxGeometry x="331" width="27" height="28" as="geometry">
                        <mxRectangle width="27" height="28" as="alternateBounds"/>
                    </mxGeometry>
                </mxCell>
                <mxCell id="141" value="0" style="shape=partialRectangle;html=1;whiteSpace=wrap;connectable=0;fillColor=#E6E6E6;top=0;left=0;bottom=0;right=0;overflow=hidden;pointerEvents=1;strokeWidth=1;fontStyle=1" vertex="1" parent="127">
                    <mxGeometry x="358" width="27" height="28" as="geometry">
                        <mxRectangle width="27" height="28" as="alternateBounds"/>
                    </mxGeometry>
                </mxCell>
                <mxCell id="142" value="0" style="shape=partialRectangle;html=1;whiteSpace=wrap;connectable=0;fillColor=#E6E6E6;top=0;left=0;bottom=0;right=0;overflow=hidden;pointerEvents=1;strokeWidth=1;fontStyle=1" vertex="1" parent="127">
                    <mxGeometry x="385" width="26" height="28" as="geometry">
                        <mxRectangle width="26" height="28" as="alternateBounds"/>
                    </mxGeometry>
                </mxCell>
                <mxCell id="143" value="0" style="shape=partialRectangle;html=1;whiteSpace=wrap;connectable=0;fillColor=#E6E6E6;top=0;left=0;bottom=0;right=0;overflow=hidden;pointerEvents=1;strokeWidth=1;fontStyle=1" vertex="1" parent="127">
                    <mxGeometry x="411" width="29" height="28" as="geometry">
                        <mxRectangle width="29" height="28" as="alternateBounds"/>
                    </mxGeometry>
                </mxCell>
                <mxCell id="144" value="" style="shape=partialRectangle;html=1;whiteSpace=wrap;collapsible=0;dropTarget=0;pointerEvents=0;fillColor=#E6E6E6;top=0;left=0;bottom=0;right=0;points=[[0,0.5],[1,0.5]];portConstraint=eastwest;strokeWidth=1;fontStyle=1" vertex="1" parent="24">
                    <mxGeometry y="199" width="440" height="29" as="geometry"/>
                </mxCell>
                <mxCell id="145" value="0" style="shape=partialRectangle;html=1;whiteSpace=wrap;connectable=0;fillColor=#E6E6E6;top=0;left=0;bottom=0;right=0;overflow=hidden;pointerEvents=1;strokeWidth=1;fontStyle=1" vertex="1" parent="144">
                    <mxGeometry width="29" height="29" as="geometry">
                        <mxRectangle width="29" height="29" as="alternateBounds"/>
                    </mxGeometry>
                </mxCell>
                <mxCell id="146" value="0" style="shape=partialRectangle;html=1;whiteSpace=wrap;connectable=0;fillColor=#E6E6E6;top=0;left=0;bottom=0;right=0;overflow=hidden;pointerEvents=1;strokeWidth=1;fontStyle=1" vertex="1" parent="144">
                    <mxGeometry x="29" width="26" height="29" as="geometry">
                        <mxRectangle width="26" height="29" as="alternateBounds"/>
                    </mxGeometry>
                </mxCell>
                <mxCell id="147" value="0" style="shape=partialRectangle;html=1;whiteSpace=wrap;connectable=0;fillColor=#E6E6E6;top=0;left=0;bottom=0;right=0;overflow=hidden;pointerEvents=1;strokeWidth=1;fontStyle=1" vertex="1" parent="144">
                    <mxGeometry x="55" width="27" height="29" as="geometry">
                        <mxRectangle width="27" height="29" as="alternateBounds"/>
                    </mxGeometry>
                </mxCell>
                <mxCell id="148" value="0" style="shape=partialRectangle;html=1;whiteSpace=wrap;connectable=0;fillColor=#E6E6E6;top=0;left=0;bottom=0;right=0;overflow=hidden;pointerEvents=1;strokeWidth=1;fontStyle=1" vertex="1" parent="144">
                    <mxGeometry x="82" width="29" height="29" as="geometry">
                        <mxRectangle width="29" height="29" as="alternateBounds"/>
                    </mxGeometry>
                </mxCell>
                <mxCell id="149" value="0" style="shape=partialRectangle;html=1;whiteSpace=wrap;connectable=0;fillColor=#E6E6E6;top=0;left=0;bottom=0;right=0;overflow=hidden;pointerEvents=1;strokeWidth=1;fontStyle=1" vertex="1" parent="144">
                    <mxGeometry x="111" width="27" height="29" as="geometry">
                        <mxRectangle width="27" height="29" as="alternateBounds"/>
                    </mxGeometry>
                </mxCell>
                <mxCell id="150" value="0" style="shape=partialRectangle;html=1;whiteSpace=wrap;connectable=0;fillColor=#E6E6E6;top=0;left=0;bottom=0;right=0;overflow=hidden;pointerEvents=1;strokeWidth=1;fontStyle=1" vertex="1" parent="144">
                    <mxGeometry x="138" width="27" height="29" as="geometry">
                        <mxRectangle width="27" height="29" as="alternateBounds"/>
                    </mxGeometry>
                </mxCell>
                <mxCell id="151" value="0" style="shape=partialRectangle;html=1;whiteSpace=wrap;connectable=0;fillColor=#E6E6E6;top=0;left=0;bottom=0;right=0;overflow=hidden;pointerEvents=1;strokeWidth=1;fontStyle=1" vertex="1" parent="144">
                    <mxGeometry x="165" width="26" height="29" as="geometry">
                        <mxRectangle width="26" height="29" as="alternateBounds"/>
                    </mxGeometry>
                </mxCell>
                <mxCell id="152" value="0" style="shape=partialRectangle;html=1;whiteSpace=wrap;connectable=0;fillColor=#E6E6E6;top=0;left=0;bottom=0;right=0;overflow=hidden;pointerEvents=1;strokeWidth=1;fontStyle=1" vertex="1" parent="144">
                    <mxGeometry x="191" width="29" height="29" as="geometry">
                        <mxRectangle width="29" height="29" as="alternateBounds"/>
                    </mxGeometry>
                </mxCell>
                <mxCell id="153" value="0" style="shape=partialRectangle;html=1;whiteSpace=wrap;connectable=0;fillColor=#E6E6E6;top=0;left=0;bottom=0;right=0;overflow=hidden;pointerEvents=1;strokeWidth=1;fontStyle=1" vertex="1" parent="144">
                    <mxGeometry x="220" width="29" height="29" as="geometry">
                        <mxRectangle width="29" height="29" as="alternateBounds"/>
                    </mxGeometry>
                </mxCell>
                <mxCell id="154" value="0" style="shape=partialRectangle;html=1;whiteSpace=wrap;connectable=0;fillColor=#E6E6E6;top=0;left=0;bottom=0;right=0;overflow=hidden;pointerEvents=1;strokeWidth=1;fontStyle=1" vertex="1" parent="144">
                    <mxGeometry x="249" width="26" height="29" as="geometry">
                        <mxRectangle width="26" height="29" as="alternateBounds"/>
                    </mxGeometry>
                </mxCell>
                <mxCell id="155" value="0" style="shape=partialRectangle;html=1;whiteSpace=wrap;connectable=0;fillColor=#E6E6E6;top=0;left=0;bottom=0;right=0;overflow=hidden;pointerEvents=1;strokeWidth=1;fontStyle=1" vertex="1" parent="144">
                    <mxGeometry x="275" width="27" height="29" as="geometry">
                        <mxRectangle width="27" height="29" as="alternateBounds"/>
                    </mxGeometry>
                </mxCell>
                <mxCell id="156" value="0" style="shape=partialRectangle;html=1;whiteSpace=wrap;connectable=0;fillColor=#E6E6E6;top=0;left=0;bottom=0;right=0;overflow=hidden;pointerEvents=1;strokeWidth=1;fontStyle=1" vertex="1" parent="144">
                    <mxGeometry x="302" width="29" height="29" as="geometry">
                        <mxRectangle width="29" height="29" as="alternateBounds"/>
                    </mxGeometry>
                </mxCell>
                <mxCell id="157" value="0" style="shape=partialRectangle;html=1;whiteSpace=wrap;connectable=0;fillColor=#E6E6E6;top=0;left=0;bottom=0;right=0;overflow=hidden;pointerEvents=1;strokeWidth=1;fontStyle=1" vertex="1" parent="144">
                    <mxGeometry x="331" width="27" height="29" as="geometry">
                        <mxRectangle width="27" height="29" as="alternateBounds"/>
                    </mxGeometry>
                </mxCell>
                <mxCell id="158" value="0" style="shape=partialRectangle;html=1;whiteSpace=wrap;connectable=0;fillColor=#E6E6E6;top=0;left=0;bottom=0;right=0;overflow=hidden;pointerEvents=1;strokeWidth=1;fontStyle=1" vertex="1" parent="144">
                    <mxGeometry x="358" width="27" height="29" as="geometry">
                        <mxRectangle width="27" height="29" as="alternateBounds"/>
                    </mxGeometry>
                </mxCell>
                <mxCell id="159" value="0" style="shape=partialRectangle;html=1;whiteSpace=wrap;connectable=0;fillColor=#E6E6E6;top=0;left=0;bottom=0;right=0;overflow=hidden;pointerEvents=1;strokeWidth=1;fontStyle=1" vertex="1" parent="144">
                    <mxGeometry x="385" width="26" height="29" as="geometry">
                        <mxRectangle width="26" height="29" as="alternateBounds"/>
                    </mxGeometry>
                </mxCell>
                <mxCell id="160" value="0" style="shape=partialRectangle;html=1;whiteSpace=wrap;connectable=0;fillColor=#E6E6E6;top=0;left=0;bottom=0;right=0;overflow=hidden;pointerEvents=1;strokeWidth=1;fontStyle=1" vertex="1" parent="144">
                    <mxGeometry x="411" width="29" height="29" as="geometry">
                        <mxRectangle width="29" height="29" as="alternateBounds"/>
                    </mxGeometry>
                </mxCell>
                <mxCell id="161" value="" style="rounded=0;whiteSpace=wrap;html=1;strokeColor=#000000;strokeWidth=3;fillColor=none;fontStyle=1" vertex="1" parent="1">
                    <mxGeometry x="431.6200000000001" y="348" width="220" height="113" as="geometry"/>
                </mxCell>
                <mxCell id="162" value="" style="rounded=0;whiteSpace=wrap;html=1;strokeColor=#000000;strokeWidth=3;fillColor=none;fontStyle=1" vertex="1" parent="1">
                    <mxGeometry x="211.71000000000004" y="460" width="220" height="113" as="geometry"/>
                </mxCell>
                <mxCell id="163" value="" style="rounded=0;whiteSpace=wrap;html=1;strokeColor=#000000;strokeWidth=3;fillColor=none;fontStyle=1" vertex="1" parent="1">
                    <mxGeometry x="431.71000000000004" y="460" width="220" height="113" as="geometry"/>
                </mxCell>
                <mxCell id="164" value="" style="rounded=0;whiteSpace=wrap;html=1;strokeColor=#000000;strokeWidth=3;fillColor=none;fontStyle=1" vertex="1" parent="1">
                    <mxGeometry x="211.71000000000004" y="347" width="220" height="113" as="geometry"/>
                </mxCell>
                <mxCell id="165" value="" style="shape=curlyBracket;whiteSpace=wrap;html=1;rounded=1;strokeColor=#000000;strokeWidth=3;fillColor=none;rotation=90;fontStyle=1" vertex="1" parent="1">
                    <mxGeometry x="590" y="270" width="20" height="115" as="geometry"/>
                </mxCell>
                <mxCell id="166" value="" style="shape=curlyBracket;whiteSpace=wrap;html=1;rounded=1;strokeColor=#000000;strokeWidth=3;fillColor=none;rotation=90;fontStyle=1" vertex="1" parent="1">
                    <mxGeometry x="310" y="179" width="20" height="212" as="geometry"/>
                </mxCell>
                <mxCell id="167" value="" style="shape=curlyBracket;whiteSpace=wrap;html=1;rounded=1;strokeColor=#000000;strokeWidth=3;fillColor=none;rotation=90;fontStyle=1" vertex="1" parent="1">
                    <mxGeometry x="366" y="82" width="20" height="324" as="geometry"/>
                </mxCell>
                <mxCell id="168" value="" style="shape=curlyBracket;whiteSpace=wrap;html=1;rounded=1;strokeColor=#000000;strokeWidth=3;fillColor=none;rotation=0;fontStyle=1" vertex="1" parent="1">
                    <mxGeometry x="182" y="346" width="20" height="115" as="geometry"/>
                </mxCell>
                <mxCell id="169" value="" style="shape=curlyBracket;whiteSpace=wrap;html=1;rounded=1;strokeColor=#000000;strokeWidth=3;fillColor=none;rotation=0;fontStyle=1" vertex="1" parent="1">
                    <mxGeometry x="123" y="345" width="20" height="164" as="geometry"/>
                </mxCell>
                <mxCell id="170" value="C = 3" style="text;html=1;strokeColor=none;fillColor=none;align=center;verticalAlign=middle;whiteSpace=wrap;rounded=0;fontStyle=1" vertex="1" parent="1">
                    <mxGeometry x="347" y="206" width="60" height="30" as="geometry"/>
                </mxCell>
                <mxCell id="171" value="" style="shape=curlyBracket;whiteSpace=wrap;html=1;rounded=1;strokeColor=#000000;strokeWidth=3;fillColor=none;rotation=-180;fontStyle=1" vertex="1" parent="1">
                    <mxGeometry x="667" y="515" width="20" height="52" as="geometry"/>
                </mxCell>
                <mxCell id="172" value="" style="shape=curlyBracket;whiteSpace=wrap;html=1;rounded=1;strokeColor=#000000;strokeWidth=3;fillColor=none;rotation=90;fontStyle=1" vertex="1" parent="1">
                    <mxGeometry x="262" y="264" width="20" height="115" as="geometry"/>
                </mxCell>
                <mxCell id="173" value="C_UNROLL = 8" style="text;html=1;strokeColor=none;fillColor=none;align=center;verticalAlign=middle;whiteSpace=wrap;rounded=0;fontStyle=1" vertex="1" parent="1">
                    <mxGeometry x="266.5" y="248" width="107" height="30" as="geometry"/>
                </mxCell>
                <mxCell id="174" value="K_UNROLL² = 4" style="text;html=1;strokeColor=none;fillColor=none;align=center;verticalAlign=middle;whiteSpace=wrap;rounded=0;fontStyle=1" vertex="1" parent="1">
                    <mxGeometry x="218.5" y="288" width="107" height="30" as="geometry"/>
                </mxCell>
                <mxCell id="175" value="F_UNROLL = 4" style="text;html=1;strokeColor=none;fillColor=none;align=center;verticalAlign=middle;whiteSpace=wrap;rounded=0;horizontal=0;fontStyle=1" vertex="1" parent="1">
                    <mxGeometry x="151" y="355.5" width="31" height="96" as="geometry"/>
                </mxCell>
                <mxCell id="176" value="F = 6" style="text;html=1;strokeColor=none;fillColor=none;align=center;verticalAlign=middle;whiteSpace=wrap;rounded=0;horizontal=0;fontStyle=1" vertex="1" parent="1">
                    <mxGeometry x="95" y="379" width="31" height="96" as="geometry"/>
                </mxCell>
                <mxCell id="177" value="C_PADDING = 1" style="text;html=1;strokeColor=none;fillColor=none;align=center;verticalAlign=middle;whiteSpace=wrap;rounded=0;fontStyle=1" vertex="1" parent="1">
                    <mxGeometry x="544.71" y="289" width="107" height="30" as="geometry"/>
                </mxCell>
                <mxCell id="178" value="F_PADDING = 2" style="text;html=1;strokeColor=none;fillColor=none;align=center;verticalAlign=middle;whiteSpace=wrap;rounded=0;horizontal=0;fontStyle=1" vertex="1" parent="1">
                    <mxGeometry x="684" y="491" width="31" height="96" as="geometry"/>
                </mxCell>
                <mxCell id="266" value="" style="endArrow=classic;html=1;rounded=1;strokeWidth=5;fillColor=#f8cecc;strokeColor=#b85450;" edge="1" parent="1">
                    <mxGeometry width="50" height="50" relative="1" as="geometry">
                        <mxPoint x="282" y="403.12" as="sourcePoint"/>
                        <mxPoint x="590" y="403.12" as="targetPoint"/>
                    </mxGeometry>
                </mxCell>
                <mxCell id="269" value="" style="endArrow=classic;html=1;rounded=1;strokeWidth=5;fillColor=#f8cecc;strokeColor=#b85450;" edge="1" parent="1">
                    <mxGeometry width="50" height="50" relative="1" as="geometry">
                        <mxPoint x="544.71" y="419" as="sourcePoint"/>
                        <mxPoint x="304.71" y="509" as="targetPoint"/>
                    </mxGeometry>
                </mxCell>
                <mxCell id="270" value="" style="endArrow=classic;html=1;rounded=1;strokeWidth=5;fillColor=#f8cecc;strokeColor=#b85450;" edge="1" parent="1">
                    <mxGeometry width="50" height="50" relative="1" as="geometry">
                        <mxPoint x="282" y="538.62" as="sourcePoint"/>
                        <mxPoint x="590.0000000000002" y="538.62" as="targetPoint"/>
                    </mxGeometry>
                </mxCell>
            </root>
        </mxGraphModel>
    </diagram>
</mxfile>